# File created by Blade
# Date/Time:  Fri Jan 16 17:19:08 2015
# Frame Rate: 120.000 fps
#------------------------------------------------------
:FULLY-SPECIFIED
:DEGREES
4217
root -5.345881 35.288920 -10.152488 -0.895656 -3.237601 -5.592800
Spine -0.968222 -1.452079 8.349186
Head 7.052733 3.936394 6.058555
LeftShoulder -24.980557 15.638292 5.591810
LeftArm 25.702137 -54.912057 -31.260767
LeftForeArm 28.330064 -0.000000 5.181997
LeftHand -7.282302 -0.000000 -8.781048
LeftHandThumb1 -26.253704 0.000000 33.147579
RightShoulder -10.359997 15.427868 -22.386745
RightArm -3.461024 18.888289 15.153776
RightForeArm -34.544639 -0.000000 16.233701
RightHand -7.840618 -0.000000 13.519415
RightHandThumb1 -24.326973 -0.000000 -32.862282
LeftUpLeg 9.743571 12.098490 6.235807
LeftLeg -8.628691 -0.000000 0.000000
LeftFoot -14.890847 28.150422 -7.866349
LeftToeBase 22.639070 -0.000000 -0.000000
RightUpLeg 7.078244 -5.155701 4.039379
RightLeg -4.287125 -0.000000 0.000000
RightFoot -4.218315 -29.367766 3.730223
RightToeBase 13.907878 -0.000000 -0.000000
4218
root -5.344923 35.289373 -10.156388 -0.911576 -3.235597 -5.589089
Spine -0.933071 -1.446668 8.354400
Head 7.008427 3.955522 5.962550
LeftShoulder -24.977676 15.631443 5.577144
LeftArm 25.735557 -54.900055 -31.315454
LeftForeArm 28.275442 -0.000000 5.191771
LeftHand -7.352795 0.000000 -8.848335
LeftHandThumb1 -26.253704 0.000000 33.147579
RightShoulder -10.356748 15.430988 -22.401649
RightArm -3.477172 18.877278 15.177885
RightForeArm -34.508691 0.000000 16.226587
RightHand -7.815501 -0.000000 13.443680
RightHandThumb1 -24.326973 -0.000000 -32.862282
LeftUpLeg 9.748929 12.098259 6.233439
LeftLeg -8.620762 -0.000000 0.000000
LeftFoot -14.881987 28.139413 -7.865330
LeftToeBase 22.606490 -0.000000 -0.000000
RightUpLeg 7.083458 -5.147824 4.033714
RightLeg -4.277250 -0.000000 0.000000
RightFoot -4.208803 -29.370823 3.710329
RightToeBase 13.941210 -0.000000 -0.000000
4219
root -5.344028 35.289692 -10.160323 -0.921333 -3.227401 -5.586152
Spine -0.912371 -1.449870 8.358371
Head 6.972628 3.981324 5.878655
LeftShoulder -24.968431 15.625564 5.567904
LeftArm 25.718486 -54.853705 -31.301110
LeftForeArm 28.277316 0.000000 5.167854
LeftHand -7.294134 -0.000000 -8.697703
LeftHandThumb1 -26.253704 0.000000 33.147579
RightShoulder -10.348950 15.434062 -22.405428
RightArm -3.481847 18.863522 15.187438
RightForeArm -34.483716 0.000000 16.212771
RightHand -7.777535 -0.000000 13.459703
RightHandThumb1 -24.326973 -0.000000 -32.862282
LeftUpLeg 9.744484 12.086892 6.229364
LeftLeg -8.607556 -0.000000 0.000000
LeftFoot -14.886808 28.140084 -7.862505
LeftToeBase 22.632792 -0.000000 -0.000000
RightUpLeg 7.082530 -5.160843 4.029467
RightLeg -4.269582 -0.000000 0.000000
RightFoot -4.209050 -29.368495 3.716720
RightToeBase 13.913928 -0.000000 -0.000000
4220
root -5.343044 35.290194 -10.164485 -0.931446 -3.226312 -5.583293
Spine -0.888415 -1.448392 8.362243
Head 6.945479 4.010301 5.804389
LeftShoulder -24.952480 15.625982 5.556195
LeftArm 25.724942 -54.868171 -31.331761
LeftForeArm 28.259359 -0.000000 5.172348
LeftHand -7.330833 0.000000 -8.710346
LeftHandThumb1 -26.253704 0.000000 33.147579
RightShoulder -10.330399 15.424289 -22.407749
RightArm -3.500976 18.880694 15.204208
RightForeArm -34.466897 -0.000000 16.219732
RightHand -7.771815 -0.000000 13.434477
RightHandThumb1 -24.326973 -0.000000 -32.862282
LeftUpLeg 9.745783 12.106584 6.228080
LeftLeg -8.605766 -0.000000 0.000000
LeftFoot -14.865427 28.126681 -7.835598
LeftToeBase 22.625169 -0.000000 -0.000000
RightUpLeg 7.081174 -5.162795 4.025588
RightLeg -4.261327 -0.000000 0.000000
RightFoot -4.198345 -29.371764 3.683172
RightToeBase 13.927989 -0.000000 -0.000000
4221
root -5.343037 35.290800 -10.169751 -0.940005 -3.210770 -5.580923
Spine -0.864498 -1.453547 8.358635
Head 6.910301 4.017183 5.738827
LeftShoulder -24.933660 15.607204 5.556841
LeftArm 25.738192 -54.863830 -31.348089
LeftForeArm 28.224197 -0.000000 5.142700
LeftHand -7.375648 -0.000000 -8.758791
LeftHandThumb1 -26.253704 0.000000 33.147579
RightShoulder -10.331207 15.428454 -22.401621
RightArm -3.493563 18.867589 15.214642
RightForeArm -34.428380 -0.000000 16.195083
RightHand -7.762719 -0.000000 13.426832
RightHandThumb1 -24.326973 -0.000000 -32.862282
LeftUpLeg 9.734729 12.103762 6.226724
LeftLeg -8.591700 -0.000000 0.000000
LeftFoot -14.872130 28.107280 -7.855219
LeftToeBase 22.619329 -0.000000 -0.000000
RightUpLeg 7.075419 -5.173842 4.024509
RightLeg -4.247290 -0.000000 0.000000
RightFoot -4.204204 -29.361261 3.715963
RightToeBase 13.880750 -0.000000 -0.000000
4222
root -5.342003 35.291021 -10.173511 -0.960024 -3.203022 -5.577804
Spine -0.831021 -1.453857 8.373660
Head 6.886027 4.047855 5.633716
LeftShoulder -24.908564 15.610299 5.540186
LeftArm 25.754507 -54.871044 -31.379528
LeftForeArm 28.091920 -0.000000 5.113667
LeftHand -7.463750 -0.000000 -8.991478
LeftHandThumb1 -26.253704 0.000000 33.147579
RightShoulder -10.317889 15.442281 -22.410421
RightArm -3.518890 18.877717 15.186717
RightForeArm -34.562395 0.000000 16.185903
RightHand -7.626572 0.000000 13.561171
RightHandThumb1 -24.326973 -0.000000 -32.862282
LeftUpLeg 9.744477 12.095409 6.224442
LeftLeg -8.586555 -0.000000 0.000000
LeftFoot -14.858082 28.105934 -7.829878
LeftToeBase 22.621227 -0.000000 -0.000000
RightUpLeg 7.089460 -5.184109 4.020508
RightLeg -4.249384 -0.000000 0.000000
RightFoot -4.196065 -29.379136 3.679900
RightToeBase 13.957437 -0.000000 -0.000000
4223
root -5.341608 35.291680 -10.178366 -0.967573 -3.185084 -5.571850
Spine -0.813356 -1.468298 8.368059
Head 6.868191 4.073281 5.580997
LeftShoulder -24.886869 15.601103 5.529259
LeftArm 25.750294 -54.894785 -31.371635
LeftForeArm 28.093835 -0.000000 5.081601
LeftHand -7.475431 -0.000000 -8.884817
LeftHandThumb1 -26.253704 0.000000 33.147579
RightShoulder -10.307454 15.420798 -22.411996
RightArm -3.513597 18.891395 15.216311
RightForeArm -34.525787 -0.000000 16.178214
RightHand -7.657107 -0.000000 13.556385
RightHandThumb1 -24.326973 -0.000000 -32.862282
LeftUpLeg 9.733104 12.094090 6.218299
LeftLeg -8.575354 -0.000000 0.000000
LeftFoot -14.855915 28.094070 -7.833028
LeftToeBase 22.631524 -0.000000 -0.000000
RightUpLeg 7.088203 -5.186808 4.012949
RightLeg -4.245782 -0.000000 0.000000
RightFoot -4.199402 -29.374041 3.762008
RightToeBase 13.839254 -0.000000 -0.000000
4224
root -5.337754 35.292033 -10.181581 -0.972090 -3.214876 -5.575138
Spine -0.791382 -1.443149 8.388486
Head 6.843894 4.093368 5.503976
LeftShoulder -24.916056 15.604968 5.514254
LeftArm 25.846151 -54.896435 -31.473404
LeftForeArm 28.046018 -0.000000 5.064716
LeftHand -7.516293 -0.000000 -8.963392
LeftHandThumb1 -26.253704 0.000000 33.147579
RightShoulder -10.292019 15.447467 -22.464305
RightArm -3.531186 18.871613 15.290804
RightForeArm -34.383635 -0.000000 16.185334
RightHand -7.777114 -0.000000 13.429860
RightHandThumb1 -24.326973 -0.000000 -32.862282
LeftUpLeg 9.745001 12.121118 6.217273
LeftLeg -8.587207 -0.000000 0.000000
LeftFoot -14.852795 28.091117 -7.841062
LeftToeBase 22.646525 -0.000000 -0.000000
RightUpLeg 7.076688 -5.163554 4.009680
RightLeg -4.229059 -0.000000 0.000000
RightFoot -4.191942 -29.353964 3.763580
RightToeBase 13.805800 -0.000000 -0.000000
4225
root -5.336761 35.292480 -10.186462 -0.976718 -3.212971 -5.570028
Spine -0.775750 -1.428131 8.388106
Head 6.831092 4.082424 5.428768
LeftShoulder -24.899195 15.594702 5.513858
LeftArm 25.891967 -54.899589 -31.517629
LeftForeArm 27.989700 -0.000000 5.044541
LeftHand -7.593256 -0.000000 -9.024809
LeftHandThumb1 -26.253704 0.000000 33.147579
RightShoulder -10.291581 15.445157 -22.480324
RightArm -3.533526 18.870337 15.317301
RightForeArm -34.375065 -0.000000 16.173207
RightHand -7.783577 -0.000000 13.436887
RightHandThumb1 -24.326973 -0.000000 -32.862282
LeftUpLeg 9.739098 12.137745 6.211012
LeftLeg -8.586301 -0.000000 0.000000
LeftFoot -14.841182 28.083831 -7.827985
LeftToeBase 22.633718 -0.000000 -0.000000
RightUpLeg 7.070847 -5.158666 4.003258
RightLeg -4.223583 -0.000000 0.000000
RightFoot -4.192567 -29.375164 3.692238
RightToeBase 13.962048 -0.000000 -0.000000
4226
root -5.336861 35.293137 -10.191303 -0.980781 -3.194590 -5.567459
Spine -0.763445 -1.440096 8.380742
Head 6.823335 4.083701 5.367081
LeftShoulder -24.876130 15.581977 5.522797
LeftArm 25.878887 -54.916822 -31.520674
LeftForeArm 28.029339 -0.000000 5.056668
LeftHand -7.592838 0.000000 -8.883645
LeftHandThumb1 -26.253704 0.000000 33.147579
RightShoulder -10.283281 15.430325 -22.480494
RightArm -3.524052 18.886565 15.347029
RightForeArm -34.380943 -0.000000 16.152388
RightHand -7.754863 -0.000000 13.432814
RightHandThumb1 -24.326973 -0.000000 -32.862282
LeftUpLeg 9.729202 12.122117 6.207216
LeftLeg -8.583149 -0.000000 0.000000
LeftFoot -14.831167 28.079380 -7.832543
LeftToeBase 22.636697 -0.000000 -0.000000
RightUpLeg 7.065301 -5.173848 4.003348
RightLeg -4.220455 -0.000000 0.000000
RightFoot -4.176512 -29.382797 3.663883
RightToeBase 13.930201 -0.000000 -0.000000
4227
root -5.335450 35.293352 -10.196643 -0.979405 -3.184114 -5.561812
Spine -0.752707 -1.439307 8.375731
Head 6.803400 4.081677 5.310636
LeftShoulder -24.868388 15.557388 5.533377
LeftArm 25.899849 -54.903196 -31.546411
LeftForeArm 28.013330 0.000000 5.058372
LeftHand -7.626843 -0.000000 -8.848805
LeftHandThumb1 -26.253704 0.000000 33.147579
RightShoulder -10.287950 15.444938 -22.513504
RightArm -3.529390 18.889653 15.411512
RightForeArm -34.341629 0.000000 16.188509
RightHand -7.883015 -0.000000 13.425160
RightHandThumb1 -24.326973 -0.000000 -32.862282
LeftUpLeg 9.712998 12.118424 6.196217
LeftLeg -8.579736 -0.000000 0.000000
LeftFoot -14.822738 28.079180 -7.833965
LeftToeBase 22.631551 -0.000000 -0.000000
RightUpLeg 7.056577 -5.177326 3.996039
RightLeg -4.221095 -0.000000 0.000000
RightFoot -4.180415 -29.386356 3.675107
RightToeBase 13.901303 -0.000000 -0.000000
4228
root -5.334916 35.294064 -10.202299 -0.970014 -3.171987 -5.557658
Spine -0.762135 -1.438531 8.379112
Head 6.810026 4.077853 5.227947
LeftShoulder -24.829373 15.542617 5.533713
LeftArm 25.865833 -54.904897 -31.519086
LeftForeArm 27.985192 0.000000 5.060587
LeftHand -7.666453 0.000000 -8.819231
LeftHandThumb1 -26.253704 0.000000 33.147579
RightShoulder -10.283507 15.445411 -22.529943
RightArm -3.556375 18.884653 15.432488
RightForeArm -34.316757 -0.000000 16.257283
RightHand -7.883128 0.000000 13.495515
RightHandThumb1 -24.326973 -0.000000 -32.862282
LeftUpLeg 9.690229 12.116277 6.188317
LeftLeg -8.578493 -0.000000 0.000000
LeftFoot -14.802929 28.072607 -7.820046
LeftToeBase 22.631729 -0.000000 -0.000000
RightUpLeg 7.035116 -5.185460 3.994912
RightLeg -4.217415 -0.000000 0.000000
RightFoot -4.159762 -29.391293 3.636811
RightToeBase 13.974907 -0.000000 -0.000000
